<svg width="17" height="17" viewBox="0 0 17 17" fill="none" xmlns="http://www.w3.org/2000/svg">
	<path d="M9.22958 0.141632H1.445C0.944444 0.141768 0.715417 0.184132 0.439167 0.417882C0.162917 0.658715 0 1.0058 0 1.36705V16.2916C0 16.6812 0.31875 16.9999 0.708333 16.9999H3.01042V13.2812C3.01042 12.5941 3.56292 12.0416 4.25 12.0416H6.02083C6.70792 12.0416 7.26042 12.5941 7.26042 13.2812V16.9999H10.2708V1.36705C10.2708 0.757882 9.83167 0.240799 9.22958 0.141632ZM3.89583 10.4479H2.83333C2.54008 10.4479 2.30208 10.2099 2.30208 9.91662C2.30208 9.62337 2.54008 9.38537 2.83333 9.38537H3.89583C4.18908 9.38537 4.42708 9.62337 4.42708 9.91662C4.42708 10.2099 4.18908 10.4479 3.89583 10.4479ZM3.89583 8.32287H2.83333C2.54008 8.32287 2.30208 8.08488 2.30208 7.79163C2.30208 7.49838 2.54008 7.26038 2.83333 7.26038H3.89583C4.18908 7.26038 4.42708 7.49838 4.42708 7.79163C4.42708 8.08488 4.18908 8.32287 3.89583 8.32287ZM3.89583 6.19788H2.83333C2.54008 6.19788 2.30208 5.95988 2.30208 5.66663C2.30208 5.37338 2.54008 5.13538 2.83333 5.13538H3.89583C4.18908 5.13538 4.42708 5.37338 4.42708 5.66663C4.42708 5.95988 4.18908 6.19788 3.89583 6.19788ZM3.89583 4.07288H2.83333C2.54008 4.07288 2.30208 3.83488 2.30208 3.54163C2.30208 3.24838 2.54008 3.01038 2.83333 3.01038H3.89583C4.18908 3.01038 4.42708 3.24838 4.42708 3.54163C4.42708 3.83488 4.18908 4.07288 3.89583 4.07288ZM7.4375 10.4479H6.375C6.08175 10.4479 5.84375 10.2099 5.84375 9.91662C5.84375 9.62337 6.08175 9.38537 6.375 9.38537H7.4375C7.73075 9.38537 7.96875 9.62337 7.96875 9.91662C7.96875 10.2099 7.73075 10.4479 7.4375 10.4479ZM7.4375 8.32287H6.375C6.08175 8.32287 5.84375 8.08488 5.84375 7.79163C5.84375 7.49838 6.08175 7.26038 6.375 7.26038H7.4375C7.73075 7.26038 7.96875 7.49838 7.96875 7.79163C7.96875 8.08488 7.73075 8.32287 7.4375 8.32287ZM7.4375 6.19788H6.375C6.08175 6.19788 5.84375 5.95988 5.84375 5.66663C5.84375 5.37338 6.08175 5.13538 6.375 5.13538H7.4375C7.73075 5.13538 7.96875 5.37338 7.96875 5.66663C7.96875 5.95988 7.73075 6.19788 7.4375 6.19788ZM7.4375 4.07288H6.375C6.08175 4.07288 5.84375 3.83488 5.84375 3.54163C5.84375 3.24838 6.08175 3.01038 6.375 3.01038H7.4375C7.73075 3.01038 7.96875 3.24838 7.96875 3.54163C7.96875 3.83488 7.73075 4.07288 7.4375 4.07288Z" fill="#9799AD"/>
	<path d="M15.8809 6.6236L10.8375 6.6236V17H15.6188C16.3023 17 16.8584 16.4439 16.8584 15.7604V7.83485C16.8584 7.24976 16.4596 6.7518 15.8809 6.6236ZM14.2021 14.875H13.1396C12.8464 14.875 12.6084 14.637 12.6084 14.3437C12.6084 14.0505 12.8464 13.8125 13.1396 13.8125H14.2021C14.4954 13.8125 14.7334 14.0505 14.7334 14.3437C14.7334 14.637 14.4954 14.875 14.2021 14.875ZM14.2021 12.75H13.1396C12.8464 12.75 12.6084 12.512 12.6084 12.2187C12.6084 11.9255 12.8464 11.6875 13.1396 11.6875H14.2021C14.4954 11.6875 14.7334 11.9255 14.7334 12.2187C14.7334 12.512 14.4954 12.75 14.2021 12.75ZM14.2021 10.625H13.1396C12.8464 10.625 12.6084 10.387 12.6084 10.0937C12.6084 9.80047 12.8464 9.56247 13.1396 9.56247H14.2021C14.4954 9.56247 14.7334 9.80047 14.7334 10.0937C14.7334 10.387 14.4954 10.625 14.2021 10.625Z" fill="#9799AD"/>
</svg>
