<svg width="10" height="10" viewBox="0 0 10 10" fill="none" xmlns="http://www.w3.org/2000/svg">
	<path d="M1.21 9.28951C1.06974 9.28927 0.936031 9.23013 0.841497 9.12651C0.745219 9.02374 0.697379 8.88477 0.709997 8.74451L0.832497 7.39751L6.4915 1.74051L8.26 3.50851L2.6025 9.16501L1.2555 9.28751C1.24 9.28901 1.2245 9.28951 1.21 9.28951ZM8.613 3.15501L6.845 1.38701L7.9055 0.326514C7.99928 0.232625 8.12654 0.179871 8.25925 0.179871C8.39195 0.179871 8.51921 0.232625 8.613 0.326514L9.6735 1.38701C9.76739 1.4808 9.82014 1.60806 9.82014 1.74076C9.82014 1.87347 9.76739 2.00073 9.6735 2.09451L8.6135 3.15451L8.613 3.15501Z" fill="#696C8A" fill-opacity="0.5"/>
</svg>
