<svg viewBox="0 0 196 43" fill="none" xmlns="http://www.w3.org/2000/svg">
	<path d="M25.2748 18.6744C21.5731 18.6744 18.5764 21.671 18.5764 25.3728C18.5764 29.0745 21.5731 32.0711 25.2748 32.0711C28.9765 32.0711 31.9731 29.0745 31.9731 25.3728C31.9731 21.671 28.9765 18.6744 25.2748 18.6744Z" fill="#2E325A"/>
	<path d="M6.94226 18.6744C3.24053 18.6744 0.155762 21.671 0.155762 25.4609V43H13.7288V25.4609C13.7288 21.671 10.644 18.6744 6.94226 18.6744Z" fill="#2E325A"/>
	<path d="M25.1865 0.253937H0.155762V13.8269H25.1865C28.8882 13.8269 31.973 10.8303 31.973 7.04044C31.973 3.33871 28.9763 0.253937 25.1865 0.253937Z" fill="#2E325A"/>
	<path d="M45.1047 9.1557H62.5557V13.8269H50.0404V21.8473H60.8811V26.5186H50.0404V36.478H45.0166L45.1047 9.1557Z" fill="#2E325A"/>
	<path d="M66.8748 9.1557H71.7222V36.6542H66.8748V9.1557Z" fill="#2E325A"/>
	<path d="M105.038 30.573L100.543 36.5662H95.0786L102.306 26.8712L95.343 17.4406H101.336L105.479 23.0814L109.709 17.4406H115.174L108.211 26.7831L115.438 36.5662H109.357L105.038 30.573Z" fill="#2E325A"/>
	<path d="M119.492 14.0032C118.963 13.4744 118.611 12.7693 118.611 11.9761C118.611 11.1829 118.875 10.5659 119.492 9.94896C120.021 9.42014 120.726 9.0676 121.519 9.0676C122.313 9.0676 123.018 9.33201 123.546 9.94896C124.075 10.4778 124.428 11.1829 124.428 11.9761C124.428 12.7693 124.163 13.4744 123.546 14.0032C123.018 14.532 122.313 14.8846 121.519 14.8846C120.726 14.8846 120.021 14.6202 119.492 14.0032ZM123.899 36.5661H119.052V17.4405H123.899V36.5661Z" fill="#2E325A"/>
	<path d="M94.8143 26.6068C94.8143 23.8746 93.933 21.4949 92.0821 19.644C90.2312 17.7931 87.9397 16.8236 85.2075 16.8236C82.4752 16.8236 80.0955 17.7931 78.3328 19.8203C76.482 21.7593 75.6006 24.139 75.6006 27.0475C75.6006 29.8678 76.5701 32.2475 78.5091 34.2746C80.4481 36.2136 82.9159 37.2713 85.8244 37.2713C87.4109 37.2713 88.821 37.0069 90.1431 36.3899C91.4651 35.8611 92.5228 35.156 93.2279 34.2746L90.6719 30.9255C89.438 32.2475 87.8515 32.9526 86.0007 32.9526C84.5905 32.9526 83.3566 32.5119 82.3871 31.7187C81.4176 30.8373 80.8006 29.7797 80.5362 28.3695H94.7262C94.7262 27.9288 94.8143 27.4 94.8143 26.6068ZM88.2041 22.2C88.9092 22.8169 89.3499 23.6983 89.7024 24.8441H80.7125C80.9769 23.7864 81.5057 22.9932 82.2108 22.2881C83.3566 21.1423 86.177 20.3491 88.2041 22.2Z" fill="#2E325A"/>
	<path d="M139.83 17.2596C137.989 17.2596 134.92 18.3221 134.102 20.7741V7.37003H128.742V36.8344H134.102V26.8222C134.102 23.3895 136.475 22.327 138.398 22.327C140.239 22.327 142.039 23.7164 142.039 26.6996V36.8344H147.399V26.3727C147.44 20.6515 144.821 17.2596 139.83 17.2596Z" fill="#2E325A"/>
	<path d="M164.789 27.8439C164.789 31.2766 162.416 32.3391 160.493 32.3391C158.651 32.3391 156.851 30.9497 156.851 27.9665V17.75H151.492V28.2525C151.451 33.9738 154.069 37.3248 159.061 37.3248C160.943 37.3248 163.97 36.2214 164.789 33.7286V36.8344H170.148V17.75H164.789V27.8439Z" fill="#2E325A"/>
	<path d="M186.229 17.2596C184.06 17.2596 181.442 18.1178 180.092 20.0385V7.37003H174.732V36.8344H180.092V34.4642C181.442 36.4257 184.06 37.3248 186.229 37.3248C191.138 37.3248 195.598 33.4017 195.598 27.2718C195.598 21.1419 191.138 17.2596 186.229 17.2596ZM185.206 32.3391C182.587 32.3391 180.255 30.1732 180.255 27.2718C180.255 24.3294 182.71 22.2452 185.206 22.2452C187.906 22.2452 190.115 24.452 190.115 27.2718C190.115 30.0506 187.906 32.3391 185.206 32.3391Z" fill="#2E325A"/>
	<path fill-rule="evenodd" clip-rule="evenodd" d="M134.379 20.8666L133.81 20.7741V7.66227H129.034V36.5422H133.81V26.8222C133.81 25.0319 134.432 23.8208 135.342 23.0628C136.242 22.3129 137.388 22.0347 138.398 22.0347C139.392 22.0347 140.382 22.4107 141.121 23.1939C141.862 23.9782 142.331 25.148 142.331 26.6996V36.5422H147.107V26.3706C147.127 23.5499 146.491 21.3474 145.275 19.8553C144.067 18.3722 142.254 17.5518 139.83 17.5518C138.957 17.5518 137.776 17.8058 136.717 18.3566C135.659 18.9071 134.756 19.7361 134.379 20.8666ZM147.399 36.8344H142.039V26.6996C142.039 23.7164 140.239 22.327 138.398 22.327C136.475 22.327 134.102 23.3895 134.102 26.8222V36.8344H128.742V7.37003H134.102V20.7741C134.18 20.5404 134.278 20.3193 134.394 20.1106C135.494 18.1292 138.164 17.2596 139.83 17.2596C144.821 17.2596 147.44 20.6515 147.399 26.3727V36.8344ZM164.789 36.8344H170.148V17.75H164.789V27.8439C164.789 31.2766 162.416 32.3391 160.493 32.3391C158.651 32.3391 156.851 30.9497 156.851 27.9665V17.75H151.492V28.2525C151.451 33.9738 154.069 37.3248 159.061 37.3248C160.763 37.3248 163.402 36.4222 164.496 34.4055C164.612 34.1924 164.71 33.9668 164.789 33.7286V36.8344ZM151.784 18.0422V28.2546C151.764 31.0754 152.4 33.2672 153.615 34.7488C154.823 36.2216 156.635 37.0325 159.061 37.0325C159.953 37.0325 161.133 36.769 162.185 36.204C163.237 35.6396 164.132 34.7909 164.511 33.6374L165.081 33.7286V36.5422H169.856V18.0422H165.081V27.8439C165.081 29.6342 164.458 30.8453 163.549 31.6033C162.649 32.3532 161.502 32.6314 160.493 32.6314C159.498 32.6314 158.509 32.2554 157.769 31.4722C157.028 30.6879 156.559 29.5181 156.559 27.9665V18.0422H151.784ZM179.799 20.9624V7.66227H175.024V36.5422H179.799V33.5241L180.332 34.2985C181.61 36.1545 184.119 37.0325 186.229 37.0325C190.974 37.0325 195.306 33.2432 195.306 27.2718C195.306 21.302 190.976 17.5518 186.229 17.5518C184.115 17.5518 181.606 18.3918 180.331 20.2065L179.799 20.9624ZM180.092 36.8344H174.732V7.37003H180.092V20.0385C180.183 19.908 180.281 19.7824 180.384 19.6616C181.795 18.0051 184.208 17.2596 186.229 17.2596C191.138 17.2596 195.598 21.1419 195.598 27.2718C195.598 33.4017 191.138 37.3248 186.229 37.3248C184.208 37.3248 181.795 36.5438 180.384 34.8493C180.281 34.7258 180.183 34.5974 180.092 34.4642V36.8344ZM185.206 32.6314C182.428 32.6314 179.963 30.3365 179.963 27.2718C179.963 24.1569 182.56 21.953 185.206 21.953C188.072 21.953 190.408 24.295 190.408 27.2718C190.408 30.203 188.076 32.6314 185.206 32.6314ZM180.255 27.2718C180.255 30.1732 182.587 32.3391 185.206 32.3391C187.906 32.3391 190.115 30.0506 190.115 27.2718C190.115 24.452 187.906 22.2452 185.206 22.2452C182.71 22.2452 180.255 24.3294 180.255 27.2718Z" fill="white"/>
</svg>
