<svg width="14" height="14" viewBox="0 0 14 14" fill="none" xmlns="http://www.w3.org/2000/svg">
	<path d="M10.2739 9.03758C10.9629 8.09679 11.3749 6.94121 11.3749 5.68847C11.3749 2.55249 8.82343 0.000976562 5.68746 0.000976562C2.55149 0.000976562 0 2.55249 0 5.68847C0 8.82444 2.55151 11.376 5.68749 11.376C6.94023 11.376 8.09592 10.9638 9.03671 10.2749L12.7627 14.0009L14 12.7636C14 12.7636 10.2739 9.03758 10.2739 9.03758ZM5.68749 9.62595C3.51622 9.62595 1.75001 7.85973 1.75001 5.68847C1.75001 3.5172 3.51622 1.75098 5.68749 1.75098C7.85875 1.75098 9.62497 3.5172 9.62497 5.68847C9.62497 7.85973 7.85872 9.62595 5.68749 9.62595Z" fill="#2E325A"/>
</svg>
