<svg width="11" height="11" viewBox="0 0 11 11" fill="none" xmlns="http://www.w3.org/2000/svg">
	<path d="M5.81931 3.92825C5.93647 4.0454 6.12642 4.0454 6.24358 3.92825L8.65836 1.51347C8.83408 1.33775 9.13501 1.43963 9.16786 1.68595L10.2582 9.86386C10.2844 10.0598 10.1172 10.227 9.92123 10.2009L1.74332 9.11049C1.49699 9.07765 1.39511 8.77671 1.57083 8.60099L3.98561 6.18622C4.10277 6.06906 4.10277 5.87911 3.98561 5.76195L1.04808 2.82442C0.930925 2.70727 0.930925 2.51732 1.04808 2.40016L2.45752 0.990719C2.57468 0.873562 2.76463 0.873562 2.88179 0.990719L5.81931 3.92825Z" fill="#FE7999"/>
</svg>
