<svg width="10" height="10" viewBox="0 0 10 10" fill="none" xmlns="http://www.w3.org/2000/svg">
	<path d="M3.55789 4.83767C3.67504 4.72051 3.67504 4.53056 3.55789 4.4134L1.14311 1.99863C0.967389 1.82291 1.06927 1.52197 1.31559 1.48913L9.4935 0.398739C9.68944 0.372614 9.85664 0.539822 9.83052 0.735757L8.74013 8.91366C8.70729 9.15999 8.40635 9.26187 8.23063 9.08615L5.81586 6.67137C5.6987 6.55421 5.50875 6.55421 5.39159 6.67137L2.45406 9.6089C2.33691 9.72606 2.14696 9.72606 2.0298 9.6089L0.620357 8.19946C0.5032 8.0823 0.503201 7.89235 0.620358 7.7752L3.55789 4.83767Z" fill="#5DD9CA"/>
</svg>
