<svg width="16" height="16" viewBox="0 0 16 16" fill="none" xmlns="http://www.w3.org/2000/svg">
	<path d="M9.36488 15.5H6.63488C6.28246 15.5 5.97754 15.2548 5.90213 14.9105L5.59688 13.4975C5.18967 13.3191 4.80355 13.096 4.44563 12.8323L3.06788 13.271C2.73188 13.3781 2.36662 13.2367 2.19038 12.9313L0.822378 10.568C0.648069 10.2624 0.708122 9.87687 0.967128 9.63875L2.03588 8.66375C1.98728 8.22208 1.98728 7.77642 2.03588 7.33475L0.967128 6.362C0.70774 6.12378 0.647663 5.73779 0.822378 5.432L2.18738 3.06725C2.36362 2.76177 2.72888 2.62035 3.06488 2.7275L4.44263 3.16625C4.62567 3.03062 4.81623 2.90542 5.01338 2.79125C5.20263 2.68452 5.3974 2.58789 5.59688 2.50175L5.90288 1.09025C5.97793 0.745977 6.28252 0.500371 6.63488 0.5H9.36488C9.71724 0.500371 10.0218 0.745977 10.0969 1.09025L10.4059 2.5025C10.6165 2.59514 10.8216 2.69981 11.0201 2.816C11.2056 2.92308 11.3849 3.04052 11.5571 3.16775L12.9356 2.729C13.2714 2.62225 13.6362 2.76362 13.8124 3.06875L15.1774 5.4335C15.3517 5.73911 15.2916 6.12463 15.0326 6.36275L13.9639 7.33775C14.0125 7.77942 14.0125 8.22508 13.9639 8.66675L15.0326 9.64175C15.2916 9.87987 15.3517 10.2654 15.1774 10.571L13.8124 12.9357C13.6362 13.2409 13.2714 13.3822 12.9356 13.2755L11.5571 12.8368C11.3827 12.9652 11.2014 13.0841 11.0141 13.193C10.8175 13.3069 10.6147 13.4098 10.4066 13.5013L10.0969 14.9105C10.0215 15.2545 9.71701 15.4997 9.36488 15.5ZM7.99688 5C6.34002 5 4.99688 6.34315 4.99688 8C4.99688 9.65685 6.34002 11 7.99688 11C9.65373 11 10.9969 9.65685 10.9969 8C10.9969 6.34315 9.65373 5 7.99688 5Z" fill="#9799AD"/>
</svg>
