<svg viewBox="0 0 12 13" fill="none" xmlns="http://www.w3.org/2000/svg">
<path d="M0 13H12V12.9986V12.4416C11.8225 9.41134 9.14363 7.08635 6 7.2342C2.85637 7.08635 0.177526 9.41134 0 12.4416V13Z" fill="#9799AD"/>
<path d="M3.84793 4.96999C4.41671 5.51849 5.19611 5.81463 6 5.78769C6.80389 5.81463 7.58329 5.51849 8.15207 4.96999C8.72085 4.42149 9.02794 3.66989 9 2.89466C9.02748 2.11956 8.72025 1.36821 8.15157 0.819811C7.5829 0.271412 6.80376 -0.024868 6 0.00163726C5.19624 -0.024868 4.4171 0.271412 3.84843 0.819811C3.27975 1.36821 2.97251 2.11956 3 2.89466C2.97206 3.66989 3.27916 4.42149 3.84793 4.96999Z" fill="#9799AD"/>
</svg>
